<svg width="188" height="188" viewBox="0 0 188 131" fill="none" xmlns="http://www.w3.org/2000/svg">
<path fill-rule="evenodd" clip-rule="evenodd" d="M93.641 130.021C124.75 130.021 149.968 104.802 149.968 73.6937C149.968 42.585 124.75 17.3665 93.641 17.3665C62.5323 17.3665 37.3137 42.585 37.3137 73.6937C37.3137 104.802 62.5323 130.021 93.641 130.021ZM87.4702 34.2161L128.88 58.4309V64.4774L123.704 67.5064L128.88 70.5355V76.5877L123.704 79.6168L128.88 82.6458V88.6981L87.4702 112.913L82.2939 109.884V103.832L77.1176 106.861L71.9414 103.832V97.7794L66.7651 100.808L61.5888 97.7794V49.3496L66.7651 46.3206L71.9414 49.3496V43.2974L77.1176 40.2683L82.2939 43.2974V37.2451L87.4702 34.2161ZM66.7651 94.7561L71.9414 91.7271V55.4077L66.7651 52.3787V94.7561ZM87.4702 88.6981V94.7503L113.352 79.6226L108.175 76.5935L87.4702 88.6981ZM87.4702 82.6458L102.999 73.5645L87.4702 64.4832V82.6458ZM87.4702 58.4309L108.175 70.5355L113.352 67.5122L87.4702 52.3787V58.4309ZM82.2939 49.3496L77.1176 46.3206V52.3729L82.2939 55.4019V49.3496ZM82.2939 61.46L77.1176 58.4309V88.7039L82.2939 85.6748V61.46ZM82.2939 91.7213L77.1176 94.7503V100.803L82.2939 97.7735V91.7213ZM87.4702 106.855L123.704 85.669L118.528 82.64L87.4702 100.803V106.855ZM118.528 76.5935L123.704 73.5645L118.528 70.5355L113.352 73.5645L118.528 76.5935ZM87.4702 46.3206L118.528 64.4832L123.704 61.4542L87.4702 40.2683V46.3206Z" fill="#00E893"/>
<g opacity="0.5">
<path d="M156.333 59.2968C160.077 57.4666 164.005 55.5131 167.968 53.6369C168.762 53.2609 169.688 53.123 170.572 52.9767C171.817 52.772 172.364 53.3215 172.6 54.5604C173.238 57.9033 172.31 61.0685 171.612 64.2651C171.437 65.0695 171.407 66.135 170.885 66.5654C170.361 67 169.308 66.814 168.482 66.8642C165.33 67.0543 162.175 67.2235 159.02 67.4116C158.548 67.4408 158.151 67.493 158.013 66.8454C157.499 64.4155 156.937 61.9962 156.333 59.2968Z" fill="#00E893"/>
<path d="M158.492 71.6465C158.529 75.683 158.239 79.5586 157.359 83.5471C158.253 83.6515 159.233 83.7685 160.213 83.8793C162.612 84.153 165.008 84.4601 167.413 84.6627C167.768 84.692 168.295 84.3138 168.524 83.9754C170.369 81.2551 172.287 78.5662 173.1 75.2986C173.292 74.5297 173.468 73.7546 173.66 72.9857C173.833 72.2942 173.643 71.9662 172.858 71.9495C169.462 71.8722 166.067 71.7405 162.672 71.6507C161.325 71.6152 159.977 71.6444 158.49 71.6444L158.492 71.6465Z" fill="#00E893"/>
<path d="M157.267 87.8823C161.452 90.0823 165.292 92.6354 168.464 96.3334C164.826 99.0161 161.298 101.619 157.702 104.271C155.498 102.231 153.402 100.293 151.284 98.3329C153.69 95.1321 156.289 92.0066 157.269 87.8802L157.267 87.8823Z" fill="#00E893"/>
<path d="M154.823 38.4792C157.198 43.6439 161.057 46.9387 166.025 49.0217C166.048 49.1387 166.071 49.2557 166.094 49.3727C162.417 51.3032 158.74 53.2316 154.975 55.2081C154.363 54.1383 153.822 53.0582 153.158 52.0595C151.935 50.2188 150.673 48.4012 149.355 46.6253C148.96 46.0946 149.184 45.8669 149.495 45.4929C150.872 43.8403 152.24 42.1793 153.573 40.4932C153.989 39.9668 154.288 39.3483 154.821 38.4771L154.823 38.4792Z" fill="#00E893"/>
</g>
<g opacity="0.8">
<path d="M174.149 53.2191C176.591 55.02 178.981 56.4951 181.02 58.3545C184.167 61.2231 186.087 64.8731 186.981 69.083C187.633 72.1521 188.191 75.2087 187.938 78.3615C187.823 79.7926 187.094 80.2941 185.907 79.4792C184.733 78.6728 183.657 77.626 182.784 76.4957C179.827 72.6744 176.441 69.3295 172.433 66.6281C172.007 66.3418 171.7 66.0786 172.105 65.5604C173.461 63.8222 173.654 61.7308 173.825 59.6603C173.994 57.6274 174.036 55.5862 174.149 53.2211V53.2191Z" fill="#00E893"/>
<path d="M157.823 123.306C158.329 120.295 158.84 117.46 159.273 114.615C159.728 111.617 159.895 108.608 159.356 105.591C159.313 105.345 159.599 104.845 159.827 104.774C163.253 103.704 165.894 101.5 168.351 99.0077C169.182 98.1637 169.698 98.2995 170.058 99.4068C171.401 103.527 171.28 107.657 170.131 111.794C169.082 115.567 167.124 118.774 164.16 121.342C162.747 122.566 161.166 123.494 159.231 123.548C158.746 123.563 158.255 123.385 157.821 123.306H157.823Z" fill="#00E893"/>
<path d="M175.409 74.5736C174.769 76.2137 174.358 77.7347 173.612 79.0697C172.538 80.9898 171.257 82.8012 169.987 84.6042C169.615 85.1307 169.571 85.4295 169.956 85.9455C170.94 87.2639 171.995 88.5571 172.77 89.9946C174.542 93.2873 176.161 96.6615 177.843 100.002C177.92 100.157 177.972 100.326 178.062 100.474C178.482 101.176 178.789 102.058 179.838 101.958C180.828 101.862 181.234 101.089 181.436 100.259C181.923 98.2765 182.529 96.2979 182.746 94.2818C183.101 90.9953 183.007 87.6943 182 84.4893C181.213 81.9822 180.086 79.6631 178.258 77.7263C177.335 76.7464 176.449 75.729 175.407 74.5757L175.409 74.5736Z" fill="#00E893"/>
<path d="M166.868 46.8509C163.295 44.9664 159.868 43.0213 157.257 39.9563C156.946 39.5907 156.695 39.1666 156.45 38.7508C156.358 38.5962 156.363 38.3873 156.344 38.3037C163.75 39.5364 169.406 36.8203 173.733 30.8888C174.381 33.5506 170.15 43.3263 166.868 46.853V46.8509Z" fill="#00E893"/>
</g>
<path d="M145.327 0.253723C145.922 0.794847 146.399 1.18136 146.819 1.6222C149.048 3.96638 150.962 6.54664 152.581 9.35463C154.225 12.2044 155.968 14.9978 157.635 17.8329C157.927 18.3323 158.153 18.9047 158.255 19.4709C158.333 19.8951 158.312 20.4926 158.063 20.7705C157.871 20.9877 157.236 20.9272 156.839 20.8269C154.405 20.2084 152.669 18.5516 151.146 16.7047C148.386 13.3556 145.726 9.925 143.037 6.51948C142.851 6.28339 142.763 5.97208 142.632 5.69421C142.492 5.74853 142.352 5.80076 142.212 5.85508C141.882 6.74094 141.524 7.61635 141.23 8.51265C138.232 17.6094 141.836 27.8949 149.132 33.068C152.79 35.6629 156.987 37.0125 161.45 36.7702C166.627 36.4881 171.827 33.2121 173.564 27.2953C174.675 23.5053 174.347 19.8742 172.889 16.2284C170.267 9.67011 165.307 5.55214 159.158 2.53104C155.583 0.769776 151.818 0.0761346 147.897 0.000920505C147.111 -0.0137045 146.324 0.149259 145.329 0.253723H145.327Z" fill="#00E893"/>
<g opacity="0.5">
<path d="M31.6669 59.2968C27.9229 57.4666 23.9951 55.5131 20.0317 53.6369C19.2378 53.2609 18.3122 53.123 17.4285 52.9767C16.1832 52.772 15.6359 53.3215 15.3998 54.5604C14.7625 57.9033 15.6902 61.0685 16.388 64.2651C16.5635 65.0695 16.5927 66.135 17.1151 66.5654C17.6395 67 18.6925 66.814 19.5177 66.8642C22.6705 67.0543 25.8253 67.2235 28.9801 67.4116C29.4523 67.4408 29.8492 67.493 29.9871 66.8454C30.5011 64.4155 31.0631 61.9962 31.6669 59.2968Z" fill="#00E893"/>
<path d="M29.5085 71.6465C29.4709 75.683 29.7613 79.5586 30.6409 83.5471C29.7466 83.6515 28.7668 83.7685 27.7869 83.8793C25.3884 84.153 22.992 84.4601 20.5872 84.6627C20.2321 84.692 19.7056 84.3138 19.4757 83.9754C17.6309 81.2551 15.7129 78.5662 14.9002 75.2986C14.708 74.5297 14.5325 73.7546 14.3403 72.9857C14.1669 72.2942 14.357 71.9662 15.1426 71.9495C18.5377 71.8722 21.9327 71.7405 25.3278 71.6507C26.6754 71.6152 28.023 71.6444 29.5106 71.6444L29.5085 71.6465Z" fill="#00E893"/>
<path d="M30.7329 87.8823C26.548 90.0823 22.7079 92.6354 19.5364 96.3334C23.1738 99.0161 26.7026 101.619 30.2983 104.271C32.5025 102.231 34.598 100.293 36.7166 98.3329C34.3097 95.1321 31.7106 92.0066 30.7308 87.8802L30.7329 87.8823Z" fill="#00E893"/>
<path d="M33.1774 38.4792C30.8019 43.6439 26.943 46.9387 21.9747 49.0217C21.9517 49.1387 21.9287 49.2557 21.9058 49.3727C25.5829 51.3032 29.26 53.2316 33.0249 55.2081C33.6371 54.1383 34.1782 53.0582 34.8426 52.0595C36.0648 50.2188 37.3267 48.4012 38.6451 46.6253C39.04 46.0946 38.8164 45.8669 38.5051 45.4929C37.1283 43.8403 35.7598 42.1793 34.4268 40.4932C34.0111 39.9668 33.7123 39.3483 33.1795 38.4771L33.1774 38.4792Z" fill="#00E893"/>
</g>
<g opacity="0.8">
<path d="M13.8514 53.2191C11.4091 55.02 9.01892 56.4951 6.97978 58.3545C3.83332 61.2231 1.91327 64.8731 1.01905 69.083C0.367199 72.1521 -0.19063 75.2087 0.0621732 78.3615C0.177084 79.7926 0.906237 80.2941 2.09295 79.4792C3.26712 78.6728 4.34311 77.626 5.21643 76.4957C8.17276 72.6744 11.5595 69.3295 15.5667 66.6281C15.9929 66.3418 16.3001 66.0786 15.8947 65.5604C14.5388 63.8222 14.3466 61.7308 14.1753 59.6603C14.006 57.6274 13.9642 55.5862 13.8514 53.2211V53.2191Z" fill="#00E893"/>
<path d="M30.1772 123.306C29.6716 120.295 29.1597 117.46 28.7273 114.615C28.2718 111.617 28.1047 108.608 28.6437 105.591C28.6876 105.345 28.4013 104.845 28.1736 104.774C24.7472 103.704 22.1063 101.5 19.6493 99.0077C18.8178 98.1637 18.3018 98.2995 17.9424 99.4068C16.599 103.527 16.7202 107.657 17.8693 111.794C18.9181 115.567 20.8758 118.774 23.8404 121.342C25.2528 122.566 26.8344 123.494 28.7691 123.548C29.2538 123.563 29.7448 123.385 30.1793 123.306H30.1772Z" fill="#00E893"/>
<path d="M12.5915 74.5736C13.2309 76.2137 13.6425 77.7347 14.3883 79.0697C15.4622 80.9898 16.743 82.8012 18.0132 84.6042C18.3851 85.1307 18.429 85.4295 18.0446 85.9455C17.0605 87.2639 16.0054 88.5571 15.2303 89.9946C13.4586 93.2873 11.8394 96.6615 10.1575 100.002C10.0802 100.157 10.028 100.326 9.93816 100.474C9.51822 101.176 9.21109 102.058 8.16227 101.958C7.17196 101.862 6.76664 101.089 6.56398 100.259C6.07718 98.2765 5.47129 96.2979 5.254 94.2818C4.89882 90.9953 4.99284 87.6943 5.99988 84.4893C6.78753 81.9822 7.91365 79.6631 9.74177 77.7263C10.6652 76.7464 11.5511 75.729 12.5936 74.5757L12.5915 74.5736Z" fill="#00E893"/>
<path d="M21.1326 46.8509C24.7053 44.9664 28.1317 43.0213 30.7433 39.9563C31.0546 39.5907 31.3053 39.1666 31.5497 38.7508C31.6417 38.5962 31.6375 38.3873 31.6563 38.3037C24.2498 39.5364 18.5941 36.8203 14.2672 30.8888C13.6196 33.5506 17.8503 43.3263 21.1326 46.853V46.8509Z" fill="#00E893"/>
</g>
<path d="M42.6732 0.253723C42.0778 0.794847 41.6014 1.18136 41.1815 1.6222C38.9522 3.96638 37.0384 6.54664 35.4192 9.35463C33.775 12.2044 32.0325 14.9978 30.3653 17.8329C30.0728 18.3323 29.8471 18.9047 29.7447 19.4709C29.6674 19.8951 29.6883 20.4926 29.937 20.7705C30.1292 20.9877 30.7643 20.9272 31.1613 20.8269C33.5953 20.2084 35.3315 18.5516 36.8546 16.7047C39.6145 13.3556 42.2742 9.925 44.9631 6.51948C45.149 6.28339 45.2368 5.97208 45.3684 5.69421C45.5084 5.74853 45.6484 5.80076 45.7883 5.85508C46.1184 6.74094 46.4757 7.61635 46.7703 8.51265C49.7684 17.6094 46.1644 27.8949 38.8686 33.068C35.2103 35.6629 31.0129 37.0125 26.5502 36.7702C21.373 36.4881 16.1728 33.2121 14.4366 27.2953C13.3251 23.5053 13.6531 19.8742 15.1114 16.2284C17.7335 9.67011 22.6934 5.55214 28.8422 2.53104C32.417 0.769776 36.1818 0.0761346 40.1034 0.000920505C40.889 -0.0137045 41.6766 0.149259 42.6711 0.253723H42.6732Z" fill="#00E893"/>
</svg>